<svg xmlns="http://www.w3.org/2000/svg" width="1200" height="800" viewBox="0 0 1200 800">
  <defs>
    <linearGradient id="g" x1="0" y1="1" x2="1" y2="0">
      <stop offset="0" stop-color="#fff7ed"/>
      <stop offset="1" stop-color="#f5f3ff"/>
    </linearGradient>
  </defs>
  <rect width="1200" height="800" fill="url(#g)"/>
  <rect x="80" y="80" width="1040" height="640" rx="40" fill="#ffffff" stroke="#e4e4e7" stroke-width="6"/>
  <text x="120" y="170" font-family="Arial, Helvetica, sans-serif" font-size="36" fill="#27272a">Dummy Shoe #2</text>
  <path d="M300 520c160-150 380-210 560-120 60 30 96 78 96 132 0 60-44 110-120 130-196 51-408 28-580-46-38-16-52-65-30-94 18-24 44-16 74-2z" fill="#fed7aa"/>
  <path d="M300 520c160-150 380-210 560-120" fill="none" stroke="#f97316" stroke-width="18" stroke-linecap="round"/>
  <path d="M350 560c160 70 360 88 520 42" fill="none" stroke="#c4b5fd" stroke-width="14" stroke-linecap="round"/>
  <text x="600" y="670" text-anchor="middle" font-family="Arial, Helvetica, sans-serif" font-size="28" fill="#71717a">Ganti file ini dengan 2.jpg nanti</text>
</svg>
