<svg xmlns="http://www.w3.org/2000/svg" width="1200" height="800" viewBox="0 0 1200 800">
  <defs>
    <linearGradient id="g" x1="0" y1="0" x2="1" y2="1">
      <stop offset="0" stop-color="#ecfdf5"/>
      <stop offset="1" stop-color="#f0f9ff"/>
    </linearGradient>
  </defs>
  <rect width="1200" height="800" fill="url(#g)"/>
  <rect x="80" y="80" width="1040" height="640" rx="40" fill="#ffffff" stroke="#e4e4e7" stroke-width="6"/>
  <text x="120" y="170" font-family="Arial, Helvetica, sans-serif" font-size="36" fill="#27272a">Dummy Shoe #3</text>
  <path d="M320 520c170-170 410-220 600-115 52 28 80 70 80 118 0 62-44 110-120 132-212 62-448 42-640-34-38-15-52-64-28-92 22-25 54-18 108-9z" fill="#bbf7d0"/>
  <path d="M320 520c170-170 410-220 600-115" fill="none" stroke="#059669" stroke-width="18" stroke-linecap="round"/>
  <text x="600" y="670" text-anchor="middle" font-family="Arial, Helvetica, sans-serif" font-size="28" fill="#71717a">Ganti file ini dengan 3.jpg nanti</text>
</svg>
